<svg width="133" height="54" viewBox="0 0 133 54" fill="none" xmlns="http://www.w3.org/2000/svg">
<path fill-rule="evenodd" clip-rule="evenodd" d="M106.474 0.0343636L126.179 52.4026L133 52.4045V52.7806H111.289V52.4045H117.681L111.201 35.1835H98.0482V35.1903L98.1187 35.3906C98.6437 36.9105 98.9046 38.503 98.8885 40.1063V46.5617C98.8885 49.8823 100.394 53.2479 103.268 53.2479C104.956 53.2479 106.303 52.6687 107.907 51.2391L108.136 51.4463C106.394 53.2381 104.284 54 101.12 54C98.7323 54 96.689 53.4404 95.0446 52.3378L94.7333 52.1198C92.569 50.5253 91.1644 47.9196 90.5599 44.3733L90.4632 43.8009L90.3624 42.9349L90.3523 42.7857L86.7261 52.3996H91.8718V52.7767H81.1058V52.3996H86.3069L90.2879 41.8421V41.8196C90.2452 41.1966 90.22 40.5726 90.2123 39.9482V35.3405C90.2123 29.6755 85.8898 26.4256 78.3521 26.4256H70.9434V52.4026H77.3627V52.7786H52.274V52.4026H58.6671L52.1874 35.1815H34.2052L27.7859 52.2121L28.0539 52.1689C36.4833 50.7531 40.3595 44.4842 40.4118 37.8835H40.8028V52.7786H0L30.2877 2.14527H18.1082C8.01426 2.14527 3.44591 9.7416 3.37538 17.3144H2.98545V1.76727H39.7499L39.5262 2.14527L9.46718 52.4026H25.2811C25.674 52.4026 26.065 52.3839 26.4589 52.3535C26.7209 52.3358 26.9849 52.3103 27.2529 52.2779L27.3486 52.2681L47.0568 0H47.4467L47.4598 0.0343636L62.9453 41.1883V2.14527H56.5693V1.76236H78.5123C89.0586 1.76236 96.421 7.03669 96.421 14.5928C96.421 20.1027 91.3781 24.676 83.8767 25.9769L82.4993 26.1478L83.8867 26.2852C88.4359 26.7928 92.0481 28.1566 94.6083 30.3372L94.6255 30.3529L106.071 0H106.459L106.474 0.0343636V0.0343636ZM97.8568 34.7122L97.895 34.8045H111.055L102.216 11.3115L94.9398 30.6239L94.9791 30.6602L95.3489 31.0176C96.4193 32.0814 97.2707 33.3352 97.8568 34.7112V34.7122ZM70.9484 26.0476V2.14527H76.602C84.1547 2.14527 88.1427 6.47902 88.1427 14.6733C88.1427 23.3889 85.8535 26.0476 78.3521 26.0476H70.9484V26.0476ZM43.2069 11.3115L34.3483 34.8055H52.0463L43.2069 11.3105V11.3115Z" fill="black"/>
</svg>
